<?xml version="1.0" encoding="utf-8"?>
<svg viewBox="124.881 120.605 122.938 166.483" xmlns="http://www.w3.org/2000/svg">
  <g transform="matrix(1, 0, 0, 1, 24.881008, -104.244698)">
    <g transform="matrix(1, 0, 0, 1, -194.497009, 183.369415)">
      <rect x="306.839" y="132.717" width="92.046" height="55.411" style="fill: rgb(67, 151, 157);"/>
      <path d="M 379.682 119.897 C 390.91 121.993 400.013 126.048 406.993 132.057 C 413.953 138.068 417.435 147.252 417.435 159.606 C 417.435 177.09 411.188 189.516 398.69 196.885 C 386.177 204.269 368.77 207.963 346.475 207.963 L 294.497 207.963 L 294.497 41.48 L 339.972 41.48 C 362.742 41.48 380.15 44.846 392.186 51.58 C 404.208 58.313 410.219 69.135 410.219 84.046 C 410.219 93.847 407.291 101.751 401.44 107.761 C 395.589 113.771 388.335 117.815 379.682 119.897 Z M 343.356 66.967 L 329.872 66.967 L 329.872 109.083 L 347.189 109.083 C 355.861 109.083 362.524 107.277 367.176 103.662 C 371.812 100.049 374.13 94.56 374.13 87.191 C 374.13 79.807 371.644 74.59 366.673 71.541 C 361.703 68.493 353.931 66.967 343.356 66.967 Z M 346.712 181.735 C 357.783 181.735 366.207 180.096 371.988 176.818 C 377.751 173.521 380.634 167.3 380.634 158.152 C 380.634 141.478 370.368 133.142 349.833 133.142 L 329.872 133.142 L 329.872 181.735 L 346.712 181.735 Z" style="fill: rgb(51, 51, 51); white-space: pre;"/>
    </g>
  </g>
</svg>